<?xml version="1.0" encoding="UTF-8"?>
<svg version="1.1" xmlns="http://www.w3.org/2000/svg" width="1024" height="1024">
<path d="M0 0 C337.92 0 675.84 0 1024 0 C1024 337.92 1024 675.84 1024 1024 C686.08 1024 348.16 1024 0 1024 C0 686.08 0 348.16 0 0 Z " fill="#F5F6F5" transform="translate(0,0)"/>
<path d="M0 0 C3.30381447 1.57451485 6.28576632 3.49570011 9.30615234 5.54492188 C10.2409996 6.17098328 10.2409996 6.17098328 11.19473267 6.80969238 C13.18534261 8.14418712 15.17159938 9.48499963 17.15771484 10.82617188 C18.45299816 11.69639476 19.7485689 12.56618998 21.04443359 13.43554688 C23.64937545 15.18391577 26.25314585 16.93400768 28.85595703 18.68554688 C40.94855273 26.84524644 40.94855273 26.84524644 53.19677734 34.76757812 C57.71820347 37.62334764 62.1749521 40.56649936 66.61865234 43.54101562 C67.31170471 44.00488678 68.00475708 44.46875793 68.71881104 44.94668579 C71.58282722 46.86519601 74.44574373 48.78533145 77.30712891 50.70776367 C93.58140392 61.79795601 93.58140392 61.79795601 110.78271484 71.32617188 C110.78271484 71.98617187 110.78271484 72.64617187 110.78271484 73.32617188 C111.85779297 73.70708984 111.85779297 73.70708984 112.95458984 74.09570312 C118.08897002 76.329584 122.33566724 79.96618035 126.78271484 83.32617188 C127.50458984 83.86242187 128.22646484 84.39867187 128.97021484 84.95117188 C143.45859482 95.92721732 156.49215159 108.08124457 167.78271484 122.32617188 C168.57677734 123.29167969 169.37083984 124.2571875 170.18896484 125.25195312 C177.47795492 134.32859109 183.20936368 144.1233995 188.78271484 154.32617188 C189.68183594 155.96972656 189.68183594 155.96972656 190.59912109 157.64648438 C198.44411276 172.68101149 203.19178453 188.97017245 206.90771484 205.45117188 C207.06643066 206.15483887 207.22514648 206.85850586 207.38867188 207.58349609 C207.87870874 209.82653552 208.33194531 212.07490483 208.78271484 214.32617188 C208.9542602 215.14345536 209.12580555 215.96073884 209.30254924 216.8027885 C210.99313717 225.67696572 211.05769193 234.38362615 211.02322388 243.37237549 C211.0240974 245.07802575 211.02585107 246.78367575 211.02840221 248.48932433 C211.03285098 253.14829381 211.02490624 257.80717045 211.01484609 262.46612811 C211.00617808 267.50072892 211.00913411 272.53532485 211.01065063 277.56993103 C211.01169737 286.28345217 211.00544288 294.99694327 210.99417496 303.71045685 C210.97789424 316.30860251 210.97270932 328.9067337 210.97019897 341.50488874 C210.96582591 361.946464 210.95252734 382.38802327 210.93359375 402.82958984 C210.9152249 422.68212809 210.90107331 442.53466199 210.89257812 462.38720703 C210.89205268 463.61170953 210.89152723 464.83621203 210.89098586 466.09782067 C210.88837571 472.24102631 210.88584831 478.38423199 210.88336205 484.52743769 C210.86264164 535.46036329 210.82577839 586.3932593 210.78271484 637.32617188 C172.50271484 637.32617188 134.22271484 637.32617188 94.78271484 637.32617188 C94.74533203 620.81585937 94.70794922 604.30554688 94.66943359 587.29492188 C94.63916592 576.8496009 94.60814827 566.40429113 94.57373047 555.95898438 C94.55569801 550.47233139 94.53781692 544.98567798 94.52026367 539.49902344 C94.51695214 538.46755585 94.51695214 538.46755585 94.51357371 537.41525054 C94.47822168 526.31956227 94.45335318 515.22387408 94.43236782 504.1281504 C94.410591 492.73753963 94.37730088 481.3470127 94.33401328 469.95645952 C94.31006879 463.55998557 94.29134798 457.16359234 94.28510094 450.76707458 C94.27905575 444.74574382 94.25907591 438.72461964 94.22843933 432.70336533 C94.21965012 430.49431162 94.21593835 428.28523092 94.21770668 426.07616043 C94.21936022 423.0571676 94.20265266 420.03880393 94.18144226 417.01989746 C94.18628984 416.14828208 94.19113741 415.27666671 94.19613189 414.37863874 C94.1277676 408.47150017 93.59094678 402.12554691 89.17880362 397.72731924 C87.78271484 396.32617188 87.78271484 396.32617188 87.78271484 394.32617188 C87.19876953 394.04644531 86.61482422 393.76671875 86.01318359 393.47851562 C83.2826924 392.06784154 80.80631785 390.37441461 78.27099609 388.64257812 C74.61155565 386.70657902 70.72672457 385.55499877 66.78271484 384.32617188 C66.11105185 365.2397485 68.97532046 349.86037898 76.03466797 332.20751953 C77.21475303 329.2395902 78.33718581 326.24981767 79.47021484 323.26367188 C80.75700301 319.91636761 82.07436794 316.60216853 83.53271484 313.32617188 C87.67808662 303.37727962 87.2862356 290.07020874 83.53271484 280.07617188 C77.89258242 267.53905301 68.78329695 261.11151031 57.78271484 253.32617188 C59.65771484 246.45117187 59.65771484 246.45117187 60.78271484 245.32617188 C64.00671021 232.10073103 64.59982278 217.87287526 58.78271484 205.32617188 C51.49889771 193.91854504 41.05308973 187.29990403 29.78271484 180.32617188 C28.6937793 179.64893066 27.60484375 178.97168945 26.48291016 178.27392578 C23.3708557 176.34026787 20.25231828 174.41739128 17.12997437 172.50039673 C15.86148253 171.7204584 14.59439825 170.93822597 13.32876587 170.15365601 C11.52492181 169.03700474 9.71523564 167.9304681 7.90380859 166.82617188 C6.84605225 166.17648437 5.7882959 165.52679688 4.69848633 164.85742188 C1.16738336 163.00302367 -1.57570553 162.01560276 -5.52978516 162.76367188 C-6.08666016 162.94929687 -6.64353516 163.13492188 -7.21728516 163.32617188 C-7.21728516 163.98617187 -7.21728516 164.64617187 -7.21728516 165.32617188 C-7.93271484 165.66648437 -8.64814453 166.00679687 -9.38525391 166.35742188 C-17.32183899 170.21790828 -24.76490488 174.60892768 -32.21728516 179.32617188 C-33.41017807 180.0480738 -34.60420798 180.76809994 -35.79931641 181.48632812 C-48.81322079 189.40859956 -60.31055063 199.60595523 -64.74462891 214.74023438 C-66.66271199 225.23420961 -65.03879295 234.78776088 -62.18994141 244.86523438 C-61.39813884 247.68265235 -60.74077288 250.44974461 -60.21728516 253.32617188 C-61.07451172 253.89464844 -61.93173828 254.463125 -62.81494141 255.04882812 C-74.63110835 262.97925746 -82.4732266 270.28528756 -87.59228516 284.01367188 C-90.89885926 301.42595041 -85.46799696 317.38137233 -78.51416016 333.18554688 C-76.81532452 337.29959462 -75.38128981 341.48204647 -73.96728516 345.70117188 C-73.70882812 346.46316895 -73.45037109 347.22516602 -73.18408203 348.01025391 C-72.94238281 348.74099121 -72.70068359 349.47172852 -72.45166016 350.22460938 C-72.23735352 350.87091309 -72.02304687 351.5172168 -71.80224609 352.18310547 C-70.52926816 356.84679506 -70.09370526 361.34031034 -70.11962891 366.16210938 C-70.12285156 367.22558594 -70.12607422 368.2890625 -70.12939453 369.38476562 C-70.13777344 370.47917969 -70.14615234 371.57359375 -70.15478516 372.70117188 C-70.15929687 373.81878906 -70.16380859 374.93640625 -70.16845703 376.08789062 C-70.18019271 378.83403992 -70.19661153 381.58007774 -70.21728516 384.32617188 C-71.3333313 384.71144043 -71.3333313 384.71144043 -72.47192383 385.10449219 C-73.45394775 385.45092773 -74.43597168 385.79736328 -75.44775391 386.15429688 C-76.90411255 386.66331543 -76.90411255 386.66331543 -78.38989258 387.18261719 C-86.39438798 390.42007997 -92.37420926 396.64002008 -96.21728516 404.32617188 C-96.32564613 407.36208997 -96.37220623 410.3756832 -96.37550354 413.41226196 C-96.38044152 414.36543851 -96.38537949 415.31861506 -96.39046711 416.30067575 C-96.40590101 419.51441351 -96.41421863 422.72813121 -96.42260742 425.94189453 C-96.43218132 428.23772866 -96.4421911 430.53356101 -96.4526062 432.82939148 C-96.47971426 439.07906238 -96.50069181 445.32874088 -96.52060819 451.57843828 C-96.54243143 458.10344367 -96.56983799 464.62842548 -96.59666443 471.15341187 C-96.64095631 482.11072784 -96.68178315 493.06805174 -96.7199707 504.02539062 C-96.75931817 515.31283513 -96.80075395 526.60026879 -96.8449707 537.88769531 C-96.84772021 538.59023752 -96.85046971 539.29277973 -96.85330254 540.0166111 C-96.87723645 546.12746092 -96.90132891 552.23831011 -96.92543697 558.34915924 C-97.02908922 584.67480927 -97.12232681 611.00048573 -97.21728516 637.32617188 C-135.49728516 637.32617188 -173.77728516 637.32617188 -213.21728516 637.32617188 C-213.2834815 585.4350272 -213.33885093 533.5439225 -213.37048114 481.65274765 C-213.37423305 475.51980044 -213.37811604 469.38685332 -213.38208008 463.25390625 C-213.38286701 462.0330004 -213.38365394 460.81209455 -213.38446472 459.55419156 C-213.39750145 439.81245057 -213.42114572 420.07073591 -213.44874354 400.32901052 C-213.47684601 380.05649312 -213.49347164 359.78398947 -213.49955064 339.51145339 C-213.50365705 327.01272662 -213.51660415 314.5140743 -213.54103456 302.01537046 C-213.55695156 293.4324338 -213.56167207 284.84953536 -213.55778929 276.26658502 C-213.55587699 271.32240577 -213.55870783 266.37835619 -213.57490158 261.43420029 C-213.69314256 223.47137046 -213.69314256 223.47137046 -210.21728516 207.32617188 C-209.9973096 206.24882404 -209.77733404 205.17147621 -209.55069256 204.06148148 C-209.04426653 201.66934656 -208.46892909 199.314299 -207.84228516 196.95117188 C-207.63095947 196.13156982 -207.41963379 195.31196777 -207.2019043 194.4675293 C-201.67182186 173.55952447 -192.45322385 151.53594898 -179.21728516 134.32617188 C-178.62818359 133.48699219 -178.03908203 132.6478125 -177.43212891 131.78320312 C-165.47556486 114.76903703 -150.91298171 98.76941895 -134.21728516 86.32617188 C-133.01445722 85.39648113 -131.81272253 84.46537501 -130.61181641 83.53320312 C-122.15198336 77.01743846 -113.45201811 71.15645684 -104.32592773 65.62109375 C-96.33996532 60.71689731 -88.49880475 55.57799121 -80.65478516 50.45117188 C-79.67662842 49.81260254 -78.69847168 49.1740332 -77.69067383 48.51611328 C-69.0300333 42.86093873 -60.37436609 37.19814604 -51.71899414 31.53491211 C-44.26097058 26.6568168 -36.78862002 21.80126747 -29.31079102 16.95361328 C-22.76051837 12.69846969 -16.25716884 8.37483687 -9.77392578 4.01831055 C-9.07203125 3.54756104 -8.37013672 3.07681152 -7.64697266 2.59179688 C-7.03063965 2.17704102 -6.41430664 1.76228516 -5.77929688 1.33496094 C-2.524378 -0.76715297 -2.524378 -0.76715297 0 0 Z " fill="#D06033" transform="translate(513.21728515625,196.673828125)"/>
<path d="M0 0 C2.50439453 1.37939453 2.50439453 1.37939453 5.1328125 3.1328125 C6.10476563 3.77476562 7.07671875 4.41671875 8.078125 5.078125 C9.08359375 5.75359375 10.0890625 6.4290625 11.125 7.125 C13.10636775 8.44071139 15.08813754 9.75581753 17.0703125 11.0703125 C18.06192383 11.73063477 19.05353516 12.39095703 20.07519531 13.07128906 C22.7998745 14.86803076 25.54486919 16.62505858 28.3046875 18.3671875 C33.25811631 21.50309169 38.13776913 24.73961344 43.0098877 27.99949646 C50.03212482 32.69655894 57.09001872 37.33881985 64.15136719 41.97680664 C66.36707215 43.43229224 68.58200322 44.88895004 70.796875 46.34570312 C72.26812707 47.31265536 73.73948096 48.27945269 75.2109375 49.24609375 C76.29334213 49.95723328 76.29334213 49.95723328 77.39761353 50.68273926 C81.1368064 53.1354252 84.88439264 55.57399274 88.64599609 57.9921875 C89.40490143 58.48050552 90.16380676 58.96882355 90.94570923 59.47193909 C92.37831685 60.39244943 93.81227409 61.31086446 95.24789429 62.22666931 C101.80277985 66.43788523 107.9245463 71.12847479 114 76 C114.92039062 76.71542969 115.84078125 77.43085938 116.7890625 78.16796875 C133.70774253 91.55176606 146.50473765 107.24720391 157 126 C157.54398438 126.96164062 158.08796875 127.92328125 158.6484375 128.9140625 C163.21452228 137.49057096 166.21856799 146.65935137 169.28125 155.85302734 C169.87171333 157.61679585 170.48712822 159.37219218 171.109375 161.125 C172.18052405 164.58274429 172.8664782 168.06753142 173.5 171.625 C173.85578125 173.56246094 173.85578125 173.56246094 174.21875 175.5390625 C174.40236263 176.60022958 174.40236263 176.60022958 174.58968461 177.68283439 C174.87529082 179.29573245 175.18214051 180.90495283 175.50533855 182.51074052 C177.09519226 190.90581438 177.2764449 199.13308461 177.24050903 207.64154053 C177.24138281 209.19457324 177.24313695 210.74760566 177.24568737 212.30063653 C177.25013106 216.53775133 177.24219851 220.77476383 177.23213124 225.01186562 C177.2234558 229.59247441 177.22641979 234.17307792 177.22793579 238.75369263 C177.22898206 246.67982081 177.22273247 254.60591595 177.21146011 262.53203583 C177.19517304 273.99172533 177.18999383 285.45139893 177.18748413 296.91109875 C177.18311206 315.50584571 177.1698162 334.10057508 177.15087891 352.6953125 C177.13250748 370.75325432 177.11835716 388.81119134 177.10986328 406.86914062 C177.10933783 407.98312429 177.10881239 409.09710795 177.10827102 410.2448487 C177.10566085 415.8336437 177.10313346 421.42243874 177.10064721 427.01123381 C177.0799299 473.34083534 177.04416538 519.67041538 177 566 C156.54 566 136.08 566 115 566 C114.9906543 560.1108374 114.98130859 554.2216748 114.97167969 548.15405273 C114.93788239 528.67608877 114.88251773 509.19822995 114.81609726 489.72035122 C114.77635915 477.91325604 114.74394011 466.10622702 114.72900391 454.29907227 C114.71596028 444.00291203 114.68892653 433.70689766 114.64538693 423.41081959 C114.6228331 417.96368605 114.60708567 412.51673202 114.60811615 407.06954765 C114.60886636 401.93209882 114.5907715 396.79504588 114.55883217 391.65769958 C114.55038248 389.78216422 114.54854931 387.90658418 114.55419731 386.03103828 C114.58333741 374.85755942 113.99328915 364.56497036 110 354 C109.34 353.34 108.68 352.68 108 352 C108 350.68 108 349.36 108 348 C113.97287425 344.82293923 117.33167259 344.68388275 124 346 C127.63 347.32 131.26 348.64 135 350 C135 414.68 135 479.36 135 546 C142.26 546 149.52 546 157 546 C156.94079142 502.16869199 156.86639002 458.33743459 156.77101372 414.50618946 C156.75974663 409.3221604 156.748608 404.13813107 156.73754883 398.95410156 C156.7342433 397.40614282 156.7342433 397.40614282 156.730871 395.82691218 C156.69557524 379.15491089 156.67066762 362.48290965 156.64965298 345.81088494 C156.62782923 328.68202102 156.59471689 311.55320524 156.55129844 294.42438233 C156.52489455 283.86959347 156.50711643 273.31486451 156.50065396 262.76004429 C156.4953654 255.50536194 156.47903344 248.25075472 156.45433434 240.99611275 C156.44043706 236.82130144 156.43110376 232.64662424 156.43499184 228.47178841 C156.46998096 181.21332833 148.08745848 139.18580373 113.8125 104.375 C106.38087204 97.02412427 98.69915588 90.76852341 90 85 C88.91477051 84.27989746 87.82954102 83.55979492 86.71142578 82.81787109 C79.8951421 78.30589609 73.05193256 73.83621875 66.19458008 69.38697815 C62.37220791 66.90337878 58.5728233 64.38795758 54.78515625 61.8515625 C49.28312734 58.1721121 43.71846541 54.60094527 38.125 51.0625 C36.19909262 49.84004245 34.27331117 48.61738646 32.34765625 47.39453125 C31.42871582 46.8113916 30.50977539 46.22825195 29.56298828 45.62744141 C26.22531778 43.50809377 22.8917643 41.38252086 19.5625 39.25 C18.49128906 38.56808594 17.42007813 37.88617188 16.31640625 37.18359375 C13.84079519 35.55359777 11.43118617 33.89006737 9.02734375 32.16015625 C8.35566162 31.68610352 7.68397949 31.21205078 6.99194336 30.72363281 C5.69771198 29.80677323 4.41505514 28.87327122 3.14672852 27.92089844 C0.31272787 25.92924854 -1.34811031 24.91940924 -4.84375 25.3515625 C-9.25387132 27.65486844 -13.3673399 30.29694439 -17.5 33.0625 C-19.30579663 34.25419869 -21.11178667 35.44560435 -22.91796875 36.63671875 C-23.79372559 37.21728027 -24.66948242 37.7978418 -25.57177734 38.39599609 C-28.63379145 40.41866176 -31.71957884 42.39991115 -34.8125 44.375 C-41.82174069 48.87041255 -48.78841622 53.43016195 -55.75683594 57.98852539 C-62.08393704 62.11982875 -68.44162419 66.19944896 -74.82006836 70.25097656 C-98.35911756 85.21699806 -121.84057732 100.94265532 -137 125 C-137.67804688 126.06347656 -138.35609375 127.12695312 -139.0546875 128.22265625 C-147.24827453 141.21175832 -152.22720786 154.43332802 -157 169 C-157.46646958 170.27909729 -157.46646958 170.27909729 -157.94236279 171.58403492 C-163.53648177 189.65196486 -162.44998541 209.32125419 -162.43273985 228.02742445 C-162.43210824 232.30728872 -162.4488076 236.587093 -162.46325684 240.8669281 C-162.48590442 248.25759152 -162.49790381 255.64820826 -162.50238609 263.03890419 C-162.50888231 273.72420902 -162.53188007 284.40942994 -162.55872939 295.09470072 C-162.6018648 312.43657572 -162.6319069 329.77844716 -162.65356445 347.12036133 C-162.67461404 363.95273588 -162.70192365 380.78508136 -162.73754883 397.61743164 C-162.73974765 398.6573629 -162.74194648 399.69729416 -162.74421193 400.76873849 C-162.75528258 405.98648032 -162.7664752 411.20422189 -162.77772844 416.42196333 C-162.87072573 459.61461683 -162.94218973 502.80728614 -163 546 C-155.74 546 -148.48 546 -141 546 C-141 481.65 -141 417.3 -141 351 C-136 349 -136 349 -133 349 C-133 348.34 -133 347.68 -133 347 C-128.36838795 344.75436992 -123.98153539 343.99453095 -118.99609375 345.67578125 C-117.30644236 346.39601649 -115.64951914 347.19207226 -114 348 C-114.83650662 351.84270227 -116.387899 355.14353649 -118.0625 358.68359375 C-120.11609603 363.75768728 -120.1512917 368.7862608 -120.15821838 374.19404602 C-120.16315636 375.01502862 -120.16809434 375.83601121 -120.17318195 376.68187207 C-120.18852856 379.4302467 -120.19690989 382.17859801 -120.20532227 384.92700195 C-120.21490302 386.89815984 -120.22491322 388.86931567 -120.23532104 390.84046936 C-120.26235479 396.19122921 -120.28337267 401.54199786 -120.30332303 406.89278817 C-120.32519199 412.48487213 -120.35257624 418.07692899 -120.37937927 423.66899109 C-120.42929382 434.25818397 -120.47423726 444.8473919 -120.51740164 455.43661422 C-120.56678457 467.49214143 -120.62169879 479.54764146 -120.67708123 491.60314238 C-120.79088229 516.4020708 -120.89699524 541.20102422 -121 566 C-141.46 566 -161.92 566 -183 566 C-183.09054452 518.32990144 -183.16210263 470.65982363 -183.20426132 422.98965602 C-183.20926377 417.35369957 -183.21444109 411.7177433 -183.21972656 406.08178711 C-183.2207758 404.95983386 -183.22182505 403.83788061 -183.22290608 402.68192878 C-183.24028141 384.54778206 -183.27180319 366.4136864 -183.30861118 348.2795699 C-183.34610069 329.65347728 -183.36825274 311.02741129 -183.37635398 292.40128249 C-183.38182517 280.92054693 -183.39906577 269.4399557 -183.43166587 257.9592646 C-183.45291277 250.0719998 -183.45917717 242.18480893 -183.45400551 234.29751763 C-183.45145947 229.7561947 -183.45518662 225.21512285 -183.4768219 220.67384529 C-183.55784795 202.78231212 -183.62925069 185.4349849 -179 168 C-178.52140722 166.12954875 -178.52140722 166.12954875 -178.0331459 164.22131062 C-177.26218207 161.3271068 -176.40597324 158.47943624 -175.5 155.625 C-175.21769531 154.68140625 -174.93539063 153.7378125 -174.64453125 152.765625 C-172.970559 147.35740695 -170.92697622 142.83587376 -168 138 C-167.39863718 136.51515354 -166.83143598 135.01562254 -166.3125 133.5 C-159.69273743 116.48514151 -147.46183033 102.04764287 -135 89 C-134.19820313 88.14535156 -133.39640625 87.29070312 -132.5703125 86.41015625 C-125.93174298 79.52128001 -118.61563984 73.74786248 -111 68 C-110.06027344 67.27683594 -109.12054688 66.55367188 -108.15234375 65.80859375 C-102.26279599 61.37625368 -96.11830627 57.6659524 -89.65234375 54.15234375 C-85.78289736 51.96517043 -82.21733993 49.37913207 -78.59545898 46.80932617 C-74.5071738 43.95933262 -70.28490904 41.3327837 -66.0625 38.6875 C-56.08095405 32.3892582 -46.24797095 25.8858078 -36.45141602 19.30541992 C-30.47179912 15.29396047 -24.45721599 11.35600399 -18.36889648 7.51147461 C-16.4560292 6.29096947 -14.57092686 5.02701403 -12.6953125 3.75 C-11.42300781 2.88375 -11.42300781 2.88375 -10.125 2 C-9.26132812 1.401875 -8.39765625 0.80375 -7.5078125 0.1875 C-4.37275293 -1.29701419 -3.29277784 -0.95174315 0 0 Z " fill="#F5F5F3" transform="translate(515,236)"/>
<path d="M0 0 C5.33940353 -0.09188266 10.67606044 -0.17150073 16.015625 -0.21972656 C17.8314748 -0.23983061 19.64725995 -0.26711835 21.46289062 -0.30175781 C24.07438105 -0.35033039 26.68501498 -0.37298027 29.296875 -0.390625 C30.10743347 -0.41127014 30.91799194 -0.43191528 31.75311279 -0.45318604 C35.39640935 -0.45463343 37.48688792 -0.41467015 40.37329102 1.91796875 C40.91010498 2.60503906 41.44691895 3.29210937 42 4 C42.90105469 4.56203125 43.80210937 5.1240625 44.73046875 5.703125 C47.25116393 8.25419001 47.34728117 8.71029294 47.48828125 12.109375 C47.45521221 13.65700607 47.39581107 15.20425916 47.3125 16.75 C47.28994141 17.54277344 47.26738281 18.33554687 47.24414062 19.15234375 C47.18540471 21.1023762 47.09572654 23.05143312 47 25 C46.28714844 25.37511719 45.57429688 25.75023437 44.83984375 26.13671875 C43.88207031 26.64847656 42.92429687 27.16023438 41.9375 27.6875 C40.99777344 28.18636719 40.05804688 28.68523437 39.08984375 29.19921875 C35.86646278 30.93178466 35.86646278 30.93178466 33.0625 33.6875 C27.58167944 37.68074463 20.51255065 36.51494868 14.0625 36.3125 C9.421875 36.209375 4.78125 36.10625 0 36 C0 24.12 0 12.24 0 0 Z " fill="#F5F2EF" transform="translate(430,330)"/>
<path d="M0 0 C5.89875 0.165 11.7975 0.33 17.875 0.5 C17.875 12.38 17.875 24.26 17.875 36.5 C8.305 36.5 -1.265 36.5 -11.125 36.5 C-11.125 35.84 -11.125 35.18 -11.125 34.5 C-12.16914062 34.11521484 -12.16914062 34.11521484 -13.234375 33.72265625 C-16.45442207 32.36066337 -19.36427189 30.71353296 -22.375 28.9375 C-23.43203125 28.31746094 -24.4890625 27.69742187 -25.578125 27.05859375 C-28.125 25.5 -28.125 25.5 -29.125 24.5 C-29.47071287 21.94773714 -29.6813978 19.50204311 -29.8125 16.9375 C-29.89177734 16.24591797 -29.97105469 15.55433594 -30.05273438 14.84179688 C-30.19655509 11.25296831 -29.59240079 9.16920058 -27.52246094 6.20556641 C-19.56978142 -1.59317912 -10.35857522 -0.40988147 0 0 Z " fill="#F5F3F1" transform="translate(575.125,329.5)"/>
<path d="M0 0 C0.87011719 0.41572266 0.87011719 0.41572266 1.7578125 0.83984375 C9.32593842 4.68598971 9.32593842 4.68598971 17.44921875 4.16015625 C19.19190573 3.44527298 20.92123996 2.6966265 22.6328125 1.91015625 C25 1 25 1 29 1 C29 6.28 29 11.56 29 17 C30.32 17.66 31.64 18.32 33 19 C34.59699597 20.02059676 36.18018683 21.06306756 37.75 22.125 C38.54921875 22.66382813 39.3484375 23.20265625 40.171875 23.7578125 C40.77515625 24.16773438 41.3784375 24.57765625 42 25 C39.35935652 27.01896732 36.68355845 28.90945825 33.875 30.6875 C33.19179688 31.12449219 32.50859375 31.56148438 31.8046875 32.01171875 C30 33 30 33 28 33 C27.93941406 33.91523438 27.87882813 34.83046875 27.81640625 35.7734375 C27.73261719 36.96195312 27.64882813 38.15046875 27.5625 39.375 C27.48128906 40.55835938 27.40007813 41.74171875 27.31640625 42.9609375 C27 46 27 46 26 48 C24.625 47.54166667 23.25 47.08333333 21.875 46.625 C21.04484375 46.35816406 20.2146875 46.09132813 19.359375 45.81640625 C17 45 17 45 14.125 43.5625 C9.67563191 42.76161374 6.59002224 44.34137383 2.48828125 46.0546875 C0 47 0 47 -3 47 C-3 42.05 -3 37.1 -3 32 C-4.32 31.34 -5.64 30.68 -7 30 C-8.28016835 28.99564028 -9.53128122 27.95309739 -10.75 26.875 C-11.36359375 26.33617187 -11.9771875 25.79734375 -12.609375 25.2421875 C-13.06828125 24.83226562 -13.5271875 24.42234375 -14 24 C-12.7263659 20.17909769 -11.56369723 20.0382729 -8.0625 18.25 C-3.83950192 15.83247916 -3.83950192 15.83247916 -1.4375 11.625 C-1.2209375 9.830625 -1.2209375 9.830625 -1 8 C-0.89558594 7.26652344 -0.79117188 6.53304688 -0.68359375 5.77734375 C-0.41598827 3.85668163 -0.20300633 1.92856012 0 0 Z " fill="#F4F1EE" transform="translate(610,388)"/>
<path d="M0 0 C6 2 6 2 9 3.6875 C12.72011667 5.31505104 14.12362765 5.14010951 18 4 C20.34628689 3.00020765 22.65469886 1.95341903 24.94921875 0.83984375 C27 0 27 0 30 0 C29.94457031 1.0621875 29.88914062 2.124375 29.83203125 3.21875 C29.55398833 11.69950314 29.55398833 11.69950314 33.515625 18.84375 C36.27080684 20.79357099 38.98374139 22.48938613 42 24 C38.83525695 27.25516428 35.67247209 30.32008793 32 33 C31.34 33 30.68 33 30 33 C30.01160156 33.66386719 30.02320313 34.32773437 30.03515625 35.01171875 C30.12478032 43.78207381 30.12478032 43.78207381 29 48 C25.92542119 47.3446476 23.37340299 46.26827254 20.5625 44.875 C17.92368073 43.69741616 16.34251198 43 13.4375 43 C10.48128076 44.21280789 7.67045187 45.62763234 4.8671875 47.16015625 C3 48 3 48 0 48 C0 43.05 0 38.1 0 33 C-1.65 32.34 -3.3 31.68 -5 31 C-6.4723278 30.0081701 -7.91248935 28.96653373 -9.3125 27.875 C-10.00988281 27.33617187 -10.70726562 26.79734375 -11.42578125 26.2421875 C-11.94527344 25.83226562 -12.46476562 25.42234375 -13 25 C-9.61127367 21.41193683 -6.23858668 18.54315201 -2 16 C-1.34 16 -0.68 16 0 16 C0 10.72 0 5.44 0 0 Z " fill="#F5F3F1" transform="translate(497,294)"/>
<path d="M0 0 C-0.06703125 1.00160156 -0.1340625 2.00320313 -0.203125 3.03515625 C-0.31361928 7.28785167 -0.10944504 10.85977214 1 15 C4.59778876 18.35656755 8.43568731 20.23072645 13 22 C11.54368138 25.70843976 9.80739889 26.87361543 6.4375 28.875 C3.07669278 31.32558859 2.12592405 32.44726609 1.1875 36.56640625 C0.96136495 40.0679661 0.87843973 43.49420194 1 47 C-2.57375366 46.48802967 -5.19120717 45.91122524 -8.5 44.375 C-12.46176372 42.81859282 -13.9825749 42.74455466 -18 44 C-19.24385741 44.66054954 -20.47292338 45.34954098 -21.6875 46.0625 C-25 48 -25 48 -28 48 C-28.33951619 46.43883181 -28.67132544 44.87598662 -29 43.3125 C-29.185625 42.44238281 -29.37125 41.57226562 -29.5625 40.67578125 C-29.98972047 38.06287036 -30.07616201 35.64186962 -30 33 C-31.0209375 32.6596875 -31.0209375 32.6596875 -32.0625 32.3125 C-35.6988709 30.68773854 -39.02829263 28.67196743 -42 26 C-42 25.34 -42 24.68 -42 24 C-39.8828125 22.2734375 -39.8828125 22.2734375 -37.125 20.375 C-35.76761719 19.42753906 -35.76761719 19.42753906 -34.3828125 18.4609375 C-32 17 -32 17 -30 17 C-29.67 11.72 -29.34 6.44 -29 1 C-26.958125 1.680625 -26.958125 1.680625 -24.875 2.375 C-24.04484375 2.63925781 -23.2146875 2.90351563 -22.359375 3.17578125 C-20 4 -20 4 -17.125 5.5625 C-12.38697189 6.22582393 -9.4552092 3.82990775 -5.48828125 1.3828125 C-3 0 -3 0 0 0 Z " fill="#F4F2F0" transform="translate(415,388)"/>
<path d="M0 0 C3.21228716 0.61527104 5.28255491 1.74288051 7.9375 3.625 C11.04039789 5.66080646 11.04039789 5.66080646 14.6875 5.9375 C15.450625 5.628125 16.21375 5.31875 17 5 C21.94117647 3 21.94117647 3 25 3 C26.4385889 7.22945135 27.84840113 11.43150424 29 15.75 C29.84413481 18.98904073 29.84413481 18.98904073 31.5625 21.5 C33.36474357 24.63433664 33.65021284 27.43217093 34 31 C28.25 34 28.25 34 26 34 C25.90912109 34.85271484 25.90912109 34.85271484 25.81640625 35.72265625 C25.29823427 40.49781037 24.70756141 45.2492305 24 50 C20.98184013 48.93476711 18.65517226 47.76293093 16 45.9375 C12.33067348 43.56772663 9.79868453 42.62862292 5.46484375 43.5234375 C4.63082031 43.80445313 3.79679687 44.08546875 2.9375 44.375 C-0.04758224 45.35929522 -2.94230239 46.2355756 -6 47 C-6 41.72 -6 36.44 -6 31 C-7.32 30.34 -8.64 29.68 -10 29 C-11.28187437 28.04119966 -12.5331293 27.04006043 -13.75 26 C-14.36359375 25.484375 -14.9771875 24.96875 -15.609375 24.4375 C-17 23 -17 23 -17 21 C-15.04414675 19.99515796 -13.08523763 18.99626195 -11.125 18 C-10.03445313 17.443125 -8.94390625 16.88625 -7.8203125 16.3125 C-5 15 -5 15 -3 15 C-2.95101563 14.33613281 -2.90203125 13.67226563 -2.8515625 12.98828125 C-2.10896309 4.21792619 -2.10896309 4.21792619 0 0 Z " fill="#F4F1EF" transform="translate(384,517)"/>
<path d="M0 0 C0.50435694 1.9363704 1.00333874 3.87414146 1.5 5.8125 C1.7784375 6.89144531 2.056875 7.97039063 2.34375 9.08203125 C3 12 3 12 3 15 C3.639375 15.226875 4.27875 15.45375 4.9375 15.6875 C9.13320261 17.48565826 13.03900556 19.73904021 17 22 C15.948125 23.0828125 15.948125 23.0828125 14.875 24.1875 C14.19824219 24.89326172 14.19824219 24.89326172 13.5078125 25.61328125 C12 27 12 27 8.75 28.875 C6.07849834 30.96425129 5.96652819 32.20322172 5.3984375 35.65234375 C5.09080659 39.43476473 5.0095444 43.20610077 5 47 C-0.6953125 46.1328125 -0.6953125 46.1328125 -3.4375 44.9375 C-6.92324021 43.66222919 -9.29909719 43.56090984 -13 44 C-15.1993541 45.16245788 -17.1850215 46.45321548 -19.203125 47.90625 C-21 49 -21 49 -24 49 C-24.09796875 48.18015625 -24.1959375 47.3603125 -24.296875 46.515625 C-24.44640625 45.43796875 -24.5959375 44.3603125 -24.75 43.25 C-24.95882812 41.64898438 -24.95882812 41.64898438 -25.171875 40.015625 C-26.51802618 35.1136028 -29.99614576 32.85989589 -34 30 C-33.49357808 25.64477147 -32.61588503 22.55760365 -30 19 C-29.34 19 -28.68 19 -28 19 C-28.0825 18.030625 -28.165 17.06125 -28.25 16.0625 C-28.28994907 11.18871287 -26.16626615 7.26483649 -24 3 C-23.09507812 3.34224609 -23.09507812 3.34224609 -22.171875 3.69140625 C-21.37265625 3.97886719 -20.5734375 4.26632812 -19.75 4.5625 C-18.96109375 4.85253906 -18.1721875 5.14257812 -17.359375 5.44140625 C-12.95248998 6.48475817 -10.13945115 4.64706915 -6.375 2.4375 C-2.21813031 0 -2.21813031 0 0 0 Z " fill="#F4F2EF" transform="translate(640,517)"/>
<path d="M0 0 C4.58960475 0.69539466 7.45087033 2.050373 12 4 C12 12.25 12 20.5 12 29 C5 32 5 32 2 32 C0.38671875 30.20703125 0.38671875 30.20703125 -1.3125 27.8125 C-4.23137764 23.87512037 -7.10111363 20.94793848 -11 18 C-10.55077798 12.92474701 -8.02986697 10.00297892 -4.9375 6.1875 C-4.22883789 5.2912793 -4.22883789 5.2912793 -3.50585938 4.37695312 C-2.34527494 2.91156874 -1.17371168 1.45489124 0 0 Z " fill="#F3EFED" transform="translate(645,460)"/>
<path d="M0 0 C2.2890625 2.44921875 2.2890625 2.44921875 4.625 5.6875 C5.78902344 7.27111328 5.78902344 7.27111328 6.9765625 8.88671875 C8.72492715 11.57677015 9.95849459 13.98187409 11 17 C10.31292969 17.66386719 9.62585938 18.32773437 8.91796875 19.01171875 C8.01691406 19.89472656 7.11585938 20.77773438 6.1875 21.6875 C5.29417969 22.55761719 4.40085937 23.42773438 3.48046875 24.32421875 C1.20985423 26.77362182 -0.41411345 29.07585703 -2 32 C-5.44840758 31.20421364 -8.59905478 30.13364841 -12 29 C-12 20.75 -12 12.5 -12 4 C-4 0 -4 0 0 0 Z " fill="#F3EEEB" transform="translate(379,460)"/>
<path d="M0 0 C4.31836645 2.15918323 6.58783092 4.72992642 9.5625 8.375 C10.04396484 8.9525 10.52542969 9.53 11.02148438 10.125 C18 18.53377536 18 18.53377536 18 21 C14.16872887 22.86090312 12.06704377 23.32415378 8 22 C5.36 20.68 2.72 19.36 0 18 C0 12.06 0 6.12 0 0 Z " fill="#F1EAE5" transform="translate(613,350)"/>
<path d="M0 0 C0.33 0 0.66 0 1 0 C1 6.27 1 12.54 1 19 C-8.21518987 22.4556962 -8.21518987 22.4556962 -13 22 C-13.66 21.67 -14.32 21.34 -15 21 C-13.44819028 16.15059464 -10.65241596 12.71025461 -7.5 8.8125 C-7.00113281 8.18408203 -6.50226563 7.55566406 -5.98828125 6.90820312 C-4.07298513 4.50766443 -2.17313341 2.17313341 0 0 Z " fill="#F4EFEA" transform="translate(409,350)"/>
<path d="M0 0 C-0.61234585 3.33803163 -1.80597932 5.39130166 -3.875 8.0625 C-4.38804687 8.73410156 -4.90109375 9.40570313 -5.4296875 10.09765625 C-6.87036125 11.84295007 -8.36948924 13.43295224 -10 15 C-10.84443568 13.75747321 -11.6751458 12.5056114 -12.5 11.25 C-12.9640625 10.55390625 -13.428125 9.8578125 -13.90625 9.140625 C-15 7 -15 7 -15 3 C-13.4447088 2.29634398 -11.88035173 1.61270622 -10.3125 0.9375 C-9.44238281 0.55464844 -8.57226562 0.17179687 -7.67578125 -0.22265625 C-4.67786136 -1.0935848 -2.96719847 -0.85006226 0 0 Z " fill="#F1EAE5" transform="translate(625,452)"/>
<path d="M0 0 C5.66104589 0.49658297 9.87674471 1.54510684 15 4 C13.66511872 7.59391114 12.03977277 10.75490696 10 14 C6.40547017 10.50817102 3.03814649 6.99299253 0 3 C0 2.01 0 1.02 0 0 Z " fill="#F2EEE9" transform="translate(399,452)"/>
<path d="M0 0 C4.8330731 1.67445052 8.9473463 4.29149497 13.25 7 C13.9821875 7.45117188 14.714375 7.90234375 15.46875 8.3671875 C16.51289062 9.02074219 16.51289062 9.02074219 17.578125 9.6875 C18.21137695 10.08324219 18.84462891 10.47898437 19.49707031 10.88671875 C21 12 21 12 22 14 C16.7696222 15.04144691 13.25526286 14.78490675 8.6640625 11.9140625 C7.55198928 11.04580757 6.45546191 10.15729021 5.375 9.25 C4.84229492 8.80736816 4.30958984 8.36473633 3.76074219 7.90869141 C2.2734375 6.578125 2.2734375 6.578125 0 4 C0 2.68 0 1.36 0 0 Z " fill="#F5F0EB" transform="translate(546,296)"/>
<path d="M0 0 C-0.25418976 3.57772091 -0.85403311 4.85095264 -3.40625 7.45703125 C-12.78452908 14.59731192 -12.78452908 14.59731192 -18.25 14.5625 C-20.10625 14.2840625 -20.10625 14.2840625 -22 14 C-18.47373687 10.04910832 -14.3415312 7.49863458 -9.875 4.75 C-9.14667969 4.29109375 -8.41835938 3.8321875 -7.66796875 3.359375 C-2.25897507 0 -2.25897507 0 0 0 Z " fill="#F2E9DF" transform="translate(478,296)"/>
<path d="M0 0 C0.66 0.33 1.32 0.66 2 1 C1.57702637 1.41773682 1.15405273 1.83547363 0.71826172 2.26586914 C-1.23223303 4.19533071 -3.17862542 6.12888256 -5.125 8.0625 C-5.79015625 8.71927734 -6.4553125 9.37605469 -7.140625 10.05273438 C-11.31564446 14.20728805 -15.22503899 18.47827879 -19 23 C-19.66 22.67 -20.32 22.34 -21 22 C-14.18743405 14.46214186 -7.25703551 7.11535803 0 0 Z " fill="#EFE2D8" transform="translate(390,315)"/>
<path d="M0 0 C0.33 0.66 0.66 1.32 1 2 C-0.61594832 4.04119788 -2.2856382 6.04072937 -4 8 C-4.66 8 -5.32 8 -6 8 C-6.33 12.62 -6.66 17.24 -7 22 C-7.99 21.67 -8.98 21.34 -10 21 C-9.34 21 -8.68 21 -8 21 C-8.13921875 19.60587891 -8.13921875 19.60587891 -8.28125 18.18359375 C-8.86384087 8.20672508 -8.86384087 8.20672508 -6.21875 4.51171875 C-4.21982031 2.81192467 -2.25458572 1.33866027 0 0 Z " fill="#DA805A" transform="translate(424,414)"/>
<path d="M0 0 C3.93673644 1.31224548 6.22719294 2.91910327 9 6 C7.37581255 6.08090971 5.75048255 6.13914995 4.125 6.1875 C3.22007812 6.22230469 2.31515625 6.25710938 1.3828125 6.29296875 C0.20332031 6.14794922 0.20332031 6.14794922 -1 6 C-1.66 5.01 -2.32 4.02 -3 3 C-2.01 3 -1.02 3 0 3 C0 2.01 0 1.02 0 0 Z " fill="#F3F1EC" transform="translate(559,304)"/>
<path d="M0 0 C0.66 0 1.32 0 2 0 C2 3.63 2 7.26 2 11 C0.68 10.67 -0.64 10.34 -2 10 C-1.85950482 8.52031676 -1.71245174 7.04125484 -1.5625 5.5625 C-1.48128906 4.73878906 -1.40007813 3.91507812 -1.31640625 3.06640625 C-1 1 -1 1 0 0 Z " fill="#F3EAE1" transform="translate(657,432)"/>
<path d="M0 0 C0.66 0.33 1.32 0.66 2 1 C1.50628906 1.34289062 1.01257813 1.68578125 0.50390625 2.0390625 C-3.08428562 4.97026149 -4.79465674 6.93011493 -5.6875 11.58203125 C-5.91340869 15.06596686 -6.03388927 18.50940505 -6 22 C-6.33 22 -6.66 22 -7 22 C-8.0735426 7.65201794 -8.0735426 7.65201794 -5.44140625 3.6015625 C-3.68673155 2.15404413 -2.04014889 0.9992566 0 0 Z " fill="#E8CABC" transform="translate(553,332)"/>
<path d="M0 0 C0.99 0.33 1.98 0.66 3 1 C3.33 3.64 3.66 6.28 4 9 C2.68 9.33 1.36 9.66 0 10 C0 6.7 0 3.4 0 0 Z " fill="#EED6C5" transform="translate(365,433)"/>
<path d="M0 0 C-1.15093722 3.45281166 -2.3205993 4.38082163 -5.0625 6.6875 C-5.79597656 7.31011719 -6.52945312 7.93273437 -7.28515625 8.57421875 C-7.85105469 9.04472656 -8.41695313 9.51523437 -9 10 C-9.66 9.34 -10.32 8.68 -11 8 C-9.87811441 6.85111717 -8.75238316 5.70598863 -7.625 4.5625 C-6.99851562 3.92441406 -6.37203125 3.28632812 -5.7265625 2.62890625 C-3.74785826 0.76211967 -2.74097805 0 0 0 Z " fill="#EEDACF" transform="translate(431,586)"/>
<path d="M0 0 C-1.01694313 3.05082939 -1.72144212 3.90372675 -4 6 C-4.66 6.66 -5.32 7.32 -6 8 C-6.99 7.34 -7.98 6.68 -9 6 C-9 5.34 -9 4.68 -9 4 C-2.25 0 -2.25 0 0 0 Z " fill="#E9D7CD" transform="translate(376,534)"/>
<path d="M0 0 C0.99 0.66 1.98 1.32 3 2 C3 2.66 3 3.32 3 4 C-0.77494907 5.83354669 -2.97113896 6.27227191 -7 5 C-7.99 4.34 -8.98 3.68 -10 3 C-7.03 3 -4.06 3 -1 3 C-0.67 2.01 -0.34 1.02 0 0 Z " fill="#EACAB8" transform="translate(628,367)"/>
<path d="M0 0 C2.91517292 1.07401108 4.77810176 1.77810176 7 4 C6.01 4.495 6.01 4.495 5 5 C4.67 5.66 4.34 6.32 4 7 C2 5.75 2 5.75 0 4 C0 2.68 0 1.36 0 0 Z " fill="#EEE0D2" transform="translate(546,296)"/>
<path d="M0 0 C0.66 0.33 1.32 0.66 2 1 C-0.25740623 3.33524782 -2.2805761 5.18705073 -5 7 C-6.32 6.67 -7.64 6.34 -9 6 C-6.03 4.02 -3.06 2.04 0 0 Z " fill="#D97F59" transform="translate(445,239)"/>
<path d="M0 0 C1.32 0 2.64 0 4 0 C4 2.64 4 5.28 4 8 C3.34 8 2.68 8 2 8 C0.74335022 5.09399739 0 3.20395416 0 0 Z " fill="#EBCEB9" transform="translate(657,509)"/>
<path d="M0 0 C-1.2375 0.5878125 -1.2375 0.5878125 -2.5 1.1875 C-3.7375 2.0846875 -3.7375 2.0846875 -5 3 C-5.41780879 5.62694422 -5.41780879 5.62694422 -5 8 C-6.5 6.75 -6.5 6.75 -8 5 C-8 3.68 -8 2.36 -8 1 C-2.25 -1.125 -2.25 -1.125 0 0 Z " fill="#EAD1C6" transform="translate(618,454)"/>
<path d="M0 0 C-0.33 1.65 -0.66 3.3 -1 5 C-1.99 5.33 -2.98 5.66 -4 6 C-4 5.34 -4 4.68 -4 4 C-4.99 3.67 -5.98 3.34 -7 3 C-2.25 0 -2.25 0 0 0 Z " fill="#E9D2C3" transform="translate(478,296)"/>
<path d="M0 0 C1.47177418 3.82661288 0.57016757 6.31010622 -1 10 C-1.96715918 11.03179606 -2.96225307 12.0392288 -4 13 C-3.52140759 11.39566191 -3.04210442 9.79153584 -2.5625 8.1875 C-2.29566406 7.29417969 -2.02882813 6.40085937 -1.75390625 5.48046875 C-1.19612127 3.64526945 -0.60655425 1.81966274 0 0 Z " fill="#DC8461" transform="translate(595,514)"/>
<path d="M0 0 C0.53625 0.2475 1.0725 0.495 1.625 0.75 C-3.55078125 3.97265625 -3.55078125 3.97265625 -5.375 4.75 C-6.365 4.42 -7.355 4.09 -8.375 3.75 C-2.95961538 -0.31153846 -2.95961538 -0.31153846 0 0 Z " fill="#EDD6CA" transform="translate(496.375,367.25)"/>
<path d="M0 0 C0.99 0 1.98 0 3 0 C2.67 2.64 2.34 5.28 2 8 C1.34 8 0.68 8 0 8 C0 5.36 0 2.72 0 0 Z " fill="#ECCBB6" transform="translate(363,509)"/>
<path d="M0 0 C0.66 0.33 1.32 0.66 2 1 C1.360625 1.721875 0.72125 2.44375 0.0625 3.1875 C-1.98673535 5.98191184 -2.61332946 7.61663274 -3 11 C-3.33 11 -3.66 11 -4 11 C-4.35233161 5.62694301 -4.35233161 5.62694301 -4 3 C-2 1 -2 1 0 0 Z " fill="#DB7C59" transform="translate(531,324)"/>
<path d="M0 0 C-0.25 1.875 -0.25 1.875 -1 4 C-3.0625 5.25 -3.0625 5.25 -5 6 C-5 5.34 -5 4.68 -5 4 C-4.34 4 -3.68 4 -3 4 C-3 3.34 -3 2.68 -3 2 C-3.99 1.67 -4.98 1.34 -6 1 C-4 0 -4 0 0 0 Z " fill="#F1E6DD" transform="translate(474,300)"/>
<path d="M0 0 C0.66 0.33 1.32 0.66 2 1 C0.25 3.0625 0.25 3.0625 -2 5 C-4.25 4.75 -4.25 4.75 -6 4 C-4.02 2.68 -2.04 1.36 0 0 Z " fill="#D87D58" transform="translate(403,266)"/>
<path d="M0 0 C0.99 0.33 1.98 0.66 3 1 C1.02 2.98 -0.96 4.96 -3 7 C-3.66 6.67 -4.32 6.34 -5 6 C-3.35 4.02 -1.7 2.04 0 0 Z " fill="#EBD9D0" transform="translate(645,460)"/>
<path d="M0 0 C0.33 1.32 0.66 2.64 1 4 C-0.65 5.32 -2.3 6.64 -4 8 C-3.40072174 4.64404172 -2.15377564 2.62198774 0 0 Z " fill="#EFE2DA" transform="translate(406,353)"/>
<path d="M0 0 C0.4125 0.474375 0.825 0.94875 1.25 1.4375 C3.182185 3.16266518 4.48192275 3.56584875 7 4 C4.35261084 5.4606285 3.10551666 6 0 6 C0 4.02 0 2.04 0 0 Z " fill="#F1DECE" transform="translate(497,336)"/>
<path d="M0 0 C0.66 0.33 1.32 0.66 2 1 C-2.39453125 5.00390625 -2.39453125 5.00390625 -4 6 C-4.99 5.67 -5.98 5.34 -7 5 C-4.69 3.35 -2.38 1.7 0 0 Z " fill="#F0D6C7" transform="translate(468,262)"/>
</svg>
